<svg xmlns="http://www.w3.org/2000/svg" width="261" height="18" fill="none" viewBox="0 0 261 18"><path fill="#7296ee" d="M.6 17.112a.64.64 0 0 1-.432-.168.64.64 0 0 1-.168-.432V.912Q0 .648.168.48A.64.64 0 0 1 .6.312h2.544q.6 0 .816.456l5.856 9.216V.912q0-.264.168-.432a.64.64 0 0 1 .432-.168h2.88q.264 0 .432.168a.59.59 0 0 1 .168.432v15.576a.67.67 0 0 1-.168.456.59.59 0 0 1-.432.168h-2.568a.86.86 0 0 1-.792-.456L4.08 7.776v8.736q0 .24-.168.432a.59.59 0 0 1-.432.168zm15.69 0a.54.54 0 0 1-.36-.144.54.54 0 0 1-.144-.36q0-.144.024-.216L21.45.984a.87.87 0 0 1 .312-.48q.24-.192.624-.192h3.552q.384 0 .624.192t.312.48l5.616 15.408.048.216a.5.5 0 0 1-.168.36.49.49 0 0 1-.36.144h-2.952q-.576 0-.768-.504l-.936-2.448h-6.408l-.912 2.448q-.192.504-.792.504zm10.104-6.408-2.232-6.336-2.232 6.336zm8.636 6.408a.64.64 0 0 1-.432-.168.64.64 0 0 1-.168-.432V.912q0-.264.168-.432a.64.64 0 0 1 .432-.168h2.592q.576 0 .84.528l4.224 7.56L46.91.84q.264-.528.84-.528h2.568q.264 0 .432.168a.55.55 0 0 1 .192.432v15.6q0 .264-.192.432a.59.59 0 0 1-.432.168h-2.856a.67.67 0 0 1-.456-.168.59.59 0 0 1-.168-.432v-9l-2.688 5.016q-.312.552-.84.552h-1.248q-.312 0-.504-.144a1.24 1.24 0 0 1-.336-.408L38.51 7.512v9q0 .24-.168.432a.59.59 0 0 1-.432.168zm18.315 0a.54.54 0 0 1-.36-.144.54.54 0 0 1-.144-.36q0-.144.024-.216L58.505.984a.87.87 0 0 1 .312-.48q.24-.192.624-.192h3.552q.384 0 .624.192t.312.48l5.616 15.408.048.216a.5.5 0 0 1-.168.36.49.49 0 0 1-.36.144h-2.952q-.576 0-.768-.504l-.936-2.448H58l-.912 2.448q-.192.504-.792.504zm10.104-6.408-2.232-6.336-2.232 6.336zm8.635 6.408a.64.64 0 0 1-.432-.168.64.64 0 0 1-.168-.432V.912q0-.264.168-.432a.64.64 0 0 1 .432-.168h2.544q.6 0 .816.456L81.3 9.984V.912q0-.264.168-.432A.64.64 0 0 1 81.9.312h2.88q.264 0 .432.168a.59.59 0 0 1 .168.432v15.576a.67.67 0 0 1-.168.456.59.59 0 0 1-.432.168h-2.568a.86.86 0 0 1-.792-.456l-5.856-8.88v8.736q0 .24-.168.432a.59.59 0 0 1-.432.168zm23.586.24q-3.456 0-5.4-1.68-1.944-1.704-2.064-4.824-.024-.696-.024-2.208t.024-2.208q.12-3.048 2.088-4.704Q92.286.072 95.67.072q2.28 0 3.96.744 1.704.744 2.592 1.896.912 1.152.96 2.376a.46.46 0 0 1-.168.36.49.49 0 0 1-.36.144H99.15a.9.9 0 0 1-.384-.072.56.56 0 0 1-.24-.264 3.06 3.06 0 0 0-.984-1.2q-.672-.528-1.872-.528-2.856 0-3 3.024a65 65 0 0 0-.024 2.088q0 1.392.024 2.088.144 3.168 3.072 3.168 1.416 0 2.256-.72.864-.744.864-2.256v-.456h-2.256a.59.59 0 0 1-.432-.168.67.67 0 0 1-.168-.456V8.064q0-.264.168-.432a.55.55 0 0 1 .432-.192h6.048q.264 0 .432.192a.59.59 0 0 1 .168.432V10.8q0 2.04-.936 3.528-.936 1.464-2.664 2.256-1.704.768-3.984.768m9.003-.24a.54.54 0 0 1-.36-.144.54.54 0 0 1-.144-.36q0-.144.024-.216l5.64-15.408a.87.87 0 0 1 .312-.48q.24-.192.624-.192h3.552q.384 0 .624.192t.312.48l5.616 15.408.048.216a.5.5 0 0 1-.168.36.49.49 0 0 1-.36.144h-2.952q-.576 0-.768-.504l-.936-2.448h-6.408l-.912 2.448q-.192.504-.792.504zm10.104-6.408-2.232-6.336-2.232 6.336zm8.635 6.408a.64.64 0 0 1-.432-.168.64.64 0 0 1-.168-.432V.912q0-.264.168-.432a.64.64 0 0 1 .432-.168h2.544q.6 0 .817.456l5.856 9.216V.912q0-.264.168-.432a.64.64 0 0 1 .431-.168h2.881q.264 0 .432.168a.59.59 0 0 1 .168.432v15.576a.67.67 0 0 1-.168.456.59.59 0 0 1-.432.168h-2.568a.86.86 0 0 1-.792-.456l-5.857-8.88v8.736q0 .24-.168.432a.59.59 0 0 1-.432.168zm17.25 0a.64.64 0 0 1-.432-.168.64.64 0 0 1-.168-.432V.912q0-.264.168-.432a.64.64 0 0 1 .432-.168h3.169q.263 0 .431.168a.59.59 0 0 1 .168.432v12.576h7.272q.265 0 .433.192a.59.59 0 0 1 .168.432v2.4q0 .24-.168.432a.59.59 0 0 1-.433.168zm14.321 0a.64.64 0 0 1-.432-.168.64.64 0 0 1-.168-.432V.912q0-.264.168-.432a.64.64 0 0 1 .432-.168h3.216q.264 0 .432.168a.55.55 0 0 1 .192.432v15.6q0 .264-.192.432a.59.59 0 0 1-.432.168zm7.781 0a.64.64 0 0 1-.432-.168.64.64 0 0 1-.168-.432V.912q0-.264.168-.432a.64.64 0 0 1 .432-.168h3.024q.264 0 .432.168a.59.59 0 0 1 .168.432V6.24l4.44-5.472q.288-.456.936-.456h3.456q.216 0 .36.168a.46.46 0 0 1 .144.336.55.55 0 0 1-.072.288l-5.76 7.248 6.192 7.968q.096.096.096.288a.54.54 0 0 1-.144.36.49.49 0 0 1-.36.144H172.1q-.576 0-.96-.48l-4.752-5.928v5.808q0 .264-.168.432a.59.59 0 0 1-.432.168zm15.914 0a.64.64 0 0 1-.432-.168.64.64 0 0 1-.168-.432V.912q0-.264.168-.432a.64.64 0 0 1 .432-.168h3.168q.264 0 .432.168a.59.59 0 0 1 .168.432v12.576h7.272q.264 0 .432.192a.59.59 0 0 1 .168.432v2.4q0 .24-.168.432a.59.59 0 0 1-.432.168zm12.76 0a.54.54 0 0 1-.36-.144.54.54 0 0 1-.144-.36q0-.144.024-.216l5.64-15.408a.87.87 0 0 1 .312-.48q.24-.192.624-.192h3.552q.384 0 .624.192t.312.48l5.616 15.408.048.216a.5.5 0 0 1-.168.36.49.49 0 0 1-.36.144h-2.952q-.576 0-.768-.504l-.936-2.448h-6.408l-.912 2.448q-.192.504-.792.504zm10.104-6.408-2.232-6.336-2.232 6.336zm8.636 6.408a.64.64 0 0 1-.432-.168.64.64 0 0 1-.168-.432V.912q0-.264.168-.432a.64.64 0 0 1 .432-.168h6.528q3.144 0 4.896 1.44 1.776 1.416 1.776 4.032 0 1.68-.792 2.856t-2.184 1.8l3.288 5.904a.6.6 0 0 1 .072.264.5.5 0 0 1-.168.36.46.46 0 0 1-.336.144h-3.192q-.696 0-.984-.648l-2.736-5.28h-2.448v5.328q0 .264-.192.432a.59.59 0 0 1-.432.168zm6.48-9.336q1.104 0 1.68-.528.576-.552.576-1.512t-.576-1.512q-.552-.576-1.68-.576h-2.76v4.128zm14.551 9.336a.67.67 0 0 1-.456-.168.59.59 0 0 1-.168-.432v-1.704q0-.72.6-1.176l2.496-2.448q2.184-1.68 3.312-2.616t1.704-1.704.576-1.464q0-1.896-1.872-1.896-.984 0-1.512.6-.528.576-.696 1.464-.144.552-.816.552h-3a.49.49 0 0 1-.504-.504 5.55 5.55 0 0 1 .84-2.808q.816-1.296 2.28-2.04Q235.481 0 237.401 0q2.016 0 3.456.648t2.184 1.824.744 2.736q0 1.68-1.056 3.072-1.032 1.368-3.168 2.976l-2.208 2.232h6.168q.264 0 .432.168a.55.55 0 0 1 .192.432v2.424q0 .264-.192.432a.59.59 0 0 1-.432.168zm23.22 0a.64.64 0 0 1-.432-.168.64.64 0 0 1-.168-.432V13.8h-7.464a.59.59 0 0 1-.432-.168.59.59 0 0 1-.168-.432v-2.28q0-.36.264-.744L253.013.72q.336-.408.888-.408h3.504q.264 0 .432.168a.59.59 0 0 1 .168.432v9.312h2.112q.288 0 .456.192a.56.56 0 0 1 .168.408V13.2q0 .264-.168.432a.59.59 0 0 1-.432.168h-2.136v2.712q0 .24-.168.432a.59.59 0 0 1-.432.168zm-.504-6.72V4.728l-4.032 5.664z"/></svg>